<svg width="63" height="63" viewBox="0 0 63 63" fill="none" xmlns="http://www.w3.org/2000/svg">
<g clip-path="url(#clip0)">
<path d="M55.6689 25.8677C56.9173 23.9552 56.6867 21.4668 55.1082 19.8162C54.4125 19.0888 54.1217 18.0668 54.3301 17.0821C54.8035 14.8477 53.6895 12.6106 51.6213 11.6419C50.7097 11.2149 50.0694 10.3669 49.9081 9.37337C49.5423 7.11891 47.6953 5.43526 45.4169 5.27899C44.4127 5.21008 43.5091 4.65071 42.9999 3.78249C41.8442 1.81263 39.5144 0.909838 37.3328 1.58709C36.3716 1.8856 35.3271 1.6902 34.5385 1.06475C32.7493 -0.354715 30.2504 -0.354715 28.4612 1.06475C27.6728 1.69045 26.6281 1.8856 25.667 1.58709C23.4858 0.909715 21.1555 1.81251 19.9999 3.78249C19.4906 4.65071 18.5872 5.21008 17.583 5.27899C15.3045 5.43526 13.4577 7.11903 13.0917 9.37337C12.9305 10.3669 12.2901 11.2149 11.3787 11.6419C9.31048 12.6107 8.19654 14.8478 8.66965 17.0821C8.87822 18.0668 8.58733 19.0889 7.89175 19.8164C6.3133 21.4669 6.08259 23.9554 7.33102 25.8679C7.88117 26.7107 7.97923 27.7689 7.59324 28.6985C6.71751 30.8078 7.40153 33.2115 9.25634 34.5438C10.0739 35.1311 10.5475 36.0824 10.5234 37.0886C10.4688 39.3717 11.9749 41.3661 14.1858 41.9385C14.8385 42.1074 15.4055 42.485 15.8118 43.0001L10.727 55.2756C10.0144 56.996 11.6272 58.7675 13.4056 58.2215L18.9725 56.5131C19.1352 56.4635 19.3106 56.5363 19.3902 56.6862L22.1186 61.8306C22.9913 63.4762 25.384 63.3601 26.0957 61.6417L31.3954 48.8472C31.4649 48.8448 31.5345 48.8448 31.604 48.8472L36.9037 61.6417C37.6168 63.3628 40.0093 63.4739 40.881 61.8307L43.6093 56.6862C43.6888 56.5361 43.8644 56.4634 44.0271 56.5132L49.5938 58.2216C51.3732 58.7678 52.9847 56.9951 52.2725 55.2758L47.1876 43.0002C47.5939 42.4852 48.1609 42.1075 48.8136 41.9386C51.0245 41.3663 52.5304 39.372 52.4761 37.0887C52.4519 36.0825 52.9257 35.1313 53.7432 34.5441C55.5981 33.2116 56.2819 30.8079 55.4062 28.6986C55.0208 27.7686 55.1189 26.7104 55.6689 25.8677ZM24.3909 60.9352C24.2751 61.2147 23.8904 61.2318 23.7493 60.9657L21.021 55.8214C20.5274 54.8907 19.4383 54.4399 18.4315 54.7487L12.8646 56.4571C12.5758 56.5455 12.3168 56.261 12.4324 55.9818L16.9436 45.0906C17.9614 46.4848 19.6629 47.2618 21.4541 47.0527C22.4537 46.9361 23.4446 47.3198 24.1048 48.0795C25.0624 49.182 26.4119 49.7672 27.7887 49.7671C28.2241 49.7671 28.6622 49.7062 29.0916 49.5869L24.3909 60.9352ZM50.1356 56.457L44.5688 54.7486C43.5619 54.4398 42.4726 54.8907 41.9792 55.8212L39.2509 60.9656C39.11 61.2315 38.7248 61.2142 38.6092 60.9351L33.9094 49.589C35.6959 50.0849 37.635 49.53 38.8954 48.0792C39.5554 47.3194 40.5459 46.9355 41.5461 47.0524C43.339 47.262 45.0394 46.4847 46.0566 45.0904L50.568 55.9813C50.6839 56.2616 50.4234 56.545 50.1356 56.457ZM54.1235 24.8589C53.2398 26.2128 53.0823 27.9126 53.7022 29.4059C54.2473 30.7189 53.8217 32.2152 52.6669 33.0448C51.3538 33.988 50.5928 35.5162 50.6315 37.1324C50.6654 38.5538 49.7278 39.7954 48.3514 40.1516C47.064 40.4849 45.9829 41.3229 45.3345 42.456C45.3328 42.4593 45.331 42.4625 45.3293 42.4657C45.1918 42.7073 45.0727 42.9615 44.9768 43.2279C44.4951 44.5655 43.1732 45.3853 41.7603 45.2196C40.1546 45.0319 38.5625 45.6487 37.5022 46.8692C36.5699 47.9424 35.0406 48.2282 33.7833 47.5644C33.3557 47.3385 32.9029 47.1817 32.4405 47.0911C32.4366 47.0902 32.4328 47.0893 32.429 47.0886C31.8148 46.9696 31.1835 46.9697 30.5693 47.0891C30.5671 47.0896 30.565 47.0901 30.5628 47.0904C30.0992 47.1811 29.6456 47.3381 29.217 47.5644C27.9597 48.2284 26.4305 47.9424 25.4982 46.8692C24.5632 45.7932 23.2155 45.1865 21.809 45.1865C21.6202 45.1865 21.4301 45.1975 21.24 45.2198C19.8284 45.385 18.505 44.5658 18.0233 43.228C17.9275 42.9618 17.8086 42.708 17.6713 42.4666C17.6692 42.4626 17.6671 42.459 17.665 42.455C17.0165 41.3224 15.9358 40.4848 14.6487 40.1516C13.2723 39.7952 12.3348 38.5538 12.3688 37.1325C12.4074 35.5162 11.6465 33.9882 10.3334 33.0448C9.1787 32.2153 8.75283 30.7189 9.29805 29.4058C9.91796 27.9125 9.76046 26.2127 8.87674 24.8588C8.0997 23.6683 8.24317 22.1192 9.22595 21.0917C10.3433 19.9233 10.8105 18.2813 10.4756 16.6997C10.181 15.3088 10.8745 13.9161 12.162 13.313C13.6261 12.6271 14.6548 11.2648 14.9139 9.66893C15.1417 8.26546 16.2914 7.21734 17.7098 7.12014C19.3228 7.00952 20.7743 6.11091 21.5923 4.71617C22.3117 3.48989 23.7627 2.92805 25.12 3.34961C26.6641 3.82913 28.3421 3.51548 29.6088 2.51056C30.7224 1.62683 32.2782 1.62683 33.3921 2.51056C34.6586 3.51536 36.3364 3.82925 37.8807 3.34961C39.2386 2.92793 40.6893 3.49001 41.4085 4.71617C42.2265 6.11078 43.678 7.0094 45.291 7.12014C46.7093 7.21747 47.8591 8.26558 48.0869 9.66893C48.346 11.2648 49.3748 12.6271 50.8388 13.3131C52.1264 13.9161 52.8197 15.3088 52.5252 16.6997C52.1902 18.2813 52.6573 19.9233 53.7748 21.0917C54.7571 22.1192 54.9006 23.6683 54.1235 24.8589Z" fill="#03A63C"/>
<path d="M14.0213 23.6406C14.5266 23.7027 14.9877 23.3432 15.0498 22.8374C16.0689 14.5545 23.141 8.30856 31.5 8.30856C39.863 8.30856 46.9353 14.5579 47.9511 22.8452C48.0084 23.3129 48.4064 23.6558 48.8658 23.6558C48.9034 23.6558 48.9411 23.6535 48.9793 23.6488C49.4851 23.5868 49.8449 23.1265 49.783 22.6206C48.6539 13.4092 40.794 6.46298 31.5 6.46298C22.2103 6.46298 14.3508 13.4055 13.218 22.612C13.1559 23.1179 13.5154 23.5783 14.0213 23.6406Z" fill="#03A63C"/>
<path d="M48.9794 26.1181C48.4751 26.0566 48.0133 26.416 47.9512 26.9218C46.9359 35.2095 39.8634 41.4592 31.5 41.4592C23.1404 41.4592 16.0683 35.2126 15.0496 26.9291C14.9875 26.4234 14.5273 26.064 14.0211 26.1258C13.5153 26.188 13.1556 26.6485 13.2178 27.1544C14.3501 36.3616 22.2096 43.3047 31.4999 43.3047C40.7943 43.3047 48.6543 36.3581 49.7829 27.1461C49.8451 26.6404 49.4853 26.1801 48.9794 26.1181Z" fill="#03A63C"/>
<path d="M44.5305 21.0757C44.296 20.354 43.6544 19.8699 42.8958 19.8427L35.6606 19.5832L33.1778 12.7821C32.9176 12.0692 32.2591 11.6085 31.5001 11.6085C30.7411 11.6085 30.0826 12.0692 29.8224 12.7821L27.3396 19.5832L20.1044 19.8427C19.3459 19.8699 18.7042 20.354 18.4697 21.0757C18.2352 21.7975 18.4697 22.5663 19.0673 23.0342L24.7682 27.4969L22.7793 34.4584C22.5707 35.1882 22.8328 35.9481 23.4469 36.3942C24.0603 36.8399 24.8639 36.8552 25.4941 36.4309L31.5 32.3879L37.506 36.4306C38.1354 36.8544 38.939 36.8401 39.5532 36.394C40.1673 35.9479 40.4292 35.1881 40.2207 34.4582L38.2318 27.4968L43.9326 23.034C44.5304 22.5662 44.765 21.7975 44.5305 21.0757ZM37.0628 26.0682C36.4876 26.5186 36.2455 27.2634 36.4463 27.9655L38.4016 34.8088L32.4975 30.8347C32.1945 30.6307 31.8472 30.5287 31.5 30.5287C31.1527 30.5287 30.8055 30.6307 30.5026 30.8346L24.5984 34.8086L26.5536 27.9655C26.7543 27.2632 26.5124 26.5186 25.9373 26.0682L20.333 21.6811L27.4457 21.4259C28.1756 21.3997 28.8091 20.9394 29.0595 20.2534L31.5001 13.5678L33.9407 20.2534C34.1913 20.9394 34.8246 21.3997 35.5545 21.4258L42.667 21.681L37.0628 26.0682Z" fill="#03A63C"/>
</g>
<defs>
<clipPath id="clip0">
<rect width="63" height="63" fill="white"/>
</clipPath>
</defs>
</svg>
