<svg width="61" height="61" viewBox="0 0 61 61" fill="none" xmlns="http://www.w3.org/2000/svg">
<path d="M60.498 7.40185C60.4618 7.36778 53.2965 0.534465 53.2965 0.534465C53.0226 0.271641 52.7393 0 52.2103 0H23.364C22.5214 0 21.8359 0.685416 21.8359 1.52798V6.22009L11.669 7.96288C10.8541 8.10585 10.3061 8.88575 10.4472 9.69983L10.9632 12.7084C7.65863 13.8204 4.26586 14.9668 0.990563 16.1433C0.216625 16.4263 -0.189525 17.2868 0.0866426 18.0654L6.60185 36.1767C6.7329 36.5411 7.07639 36.7681 7.44274 36.7681C7.54306 36.7681 7.64528 36.7511 7.74512 36.7151C8.20953 36.5481 8.45055 36.0362 8.28352 35.5718L1.8647 17.7284C4.95044 16.6236 8.14603 15.5423 11.2691 14.4911L14.3394 32.3914L17.8724 53.0065C18 53.7342 18.6397 54.252 19.3617 54.252C19.4434 54.252 19.5263 54.2453 19.6095 54.2316L29.1784 52.5895L36.6557 51.3078L25.4099 55.3499L16.5416 58.5384L9.65435 39.3819C9.48743 38.9175 8.97573 38.6765 8.5112 38.8434C8.04679 39.0103 7.80576 39.5222 7.97268 39.9866L14.9577 59.4153C15.181 60.0263 15.7598 60.4061 16.3716 60.4061C16.5407 60.4061 16.7124 60.377 16.8796 60.3159L26.0143 57.0317L46.7559 49.5766L50.7184 48.8973H59.4718C60.3144 48.8973 60.9999 48.2104 60.9999 47.3659V8.40871C61 7.87389 60.7098 7.60105 60.498 7.40185ZM58.1305 7.61344H53.6592L53.5484 7.61392C53.3343 7.61535 52.8331 7.61904 52.7059 7.49275C52.6766 7.46356 52.6423 7.36611 52.6423 7.18513L52.632 2.37006L58.1305 7.61344ZM59.2129 47.11H23.623V29.6956C23.623 29.2021 23.2229 28.802 22.7294 28.802C22.236 28.802 21.8359 29.2021 21.8359 29.6956V47.3657C21.8359 48.21 22.5214 48.8971 23.364 48.8971H40.1404L28.8763 50.8279L19.5854 52.4224L16.1008 32.0892L12.2563 9.67529L21.8358 8.03318V25.5495C21.8358 26.0429 22.2358 26.443 22.7293 26.443C23.2228 26.443 23.6229 26.0429 23.6229 25.5495V1.78699H50.8435L50.8552 7.18716C50.8552 7.84172 51.0543 8.37118 51.4469 8.76101C52.0501 9.35993 52.9028 9.40163 53.4321 9.40163C53.4776 9.40163 53.5207 9.40127 53.5611 9.40103L59.2129 9.40067V47.11Z" fill="#03A63C"/>
<path d="M27.9302 13.8746C27.9302 14.3681 28.3303 14.7681 28.8238 14.7681H54.3718C54.8653 14.7681 55.2654 14.3681 55.2654 13.8746C55.2654 13.3811 54.8653 12.981 54.3718 12.981H28.8238C28.3303 12.981 27.9302 13.3811 27.9302 13.8746Z" fill="#03A63C"/>
<path d="M54.3718 19.3289H28.8238C28.3303 19.3289 27.9302 19.729 27.9302 20.2224C27.9302 20.7159 28.3303 21.116 28.8238 21.116H54.3718C54.8653 21.116 55.2654 20.7159 55.2654 20.2224C55.2654 19.729 54.8653 19.3289 54.3718 19.3289Z" fill="#03A63C"/>
<path d="M54.3718 25.6776H28.8238C28.3303 25.6776 27.9302 26.0777 27.9302 26.5712C27.9302 27.0646 28.3303 27.4647 28.8238 27.4647H54.3718C54.8653 27.4647 55.2654 27.0646 55.2654 26.5712C55.2654 26.0777 54.8653 25.6776 54.3718 25.6776Z" fill="#03A63C"/>
<path d="M54.3718 32.0255H28.8238C28.3303 32.0255 27.9302 32.4255 27.9302 32.919C27.9302 33.4125 28.3303 33.8126 28.8238 33.8126H54.3718C54.8653 33.8126 55.2654 33.4125 55.2654 32.919C55.2654 32.4255 54.8653 32.0255 54.3718 32.0255Z" fill="#03A63C"/>
<path d="M54.3718 38.3734H28.8238C28.3303 38.3734 27.9302 38.7735 27.9302 39.267C27.9302 39.7605 28.3303 40.1606 28.8238 40.1606H54.3718C54.8653 40.1606 55.2654 39.7605 55.2654 39.267C55.2654 38.7735 54.8653 38.3734 54.3718 38.3734Z" fill="#03A63C"/>
</svg>
