<svg width="65" height="65" viewBox="0 0 65 65" fill="none" xmlns="http://www.w3.org/2000/svg">
<path d="M23.9837 31.1037C23.8796 32.7427 22.9821 34.3004 21.4535 35.1827C19.0249 36.5855 10.1192 35.8632 10.1192 35.8632C10.1192 35.8632 13.9468 27.7902 16.3754 26.3874C17.9369 25.486 19.7778 25.5076 21.2669 26.2846C22.0934 26.7149 22.8119 27.3789 23.3121 28.246C23.8314 29.1461 24.0447 30.1389 23.9837 31.1037Z" fill="white"/>
<path d="M16.2398 50.8512C18.3432 50.8512 20.0484 49.1461 20.0484 47.0426C20.0484 44.9392 18.3432 43.234 16.2398 43.234C14.1364 43.234 12.4312 44.9392 12.4312 47.0426C12.4312 49.1461 14.1364 50.8512 16.2398 50.8512Z" fill="white"/>
<path d="M63.0625 5.35737C64.2901 7.48257 57.7723 13.6106 47.9842 19.8072C46.589 20.6908 45.1278 21.5756 43.6132 22.4503C41.0462 23.9319 38.5313 25.2662 36.1471 26.4265C35.7561 24.8739 35.1455 23.3517 34.3063 21.8981C33.4862 20.4775 32.4985 19.213 31.3826 18.1149C32.3271 17.4763 33.3135 16.8327 34.333 16.1903C35.6774 15.3422 37.0815 14.4942 38.5351 13.655C50.6794 6.64341 61.6609 2.92876 63.0625 5.35737Z" fill="white"/>
<path d="M54.3257 43.234C56.4292 43.234 58.1343 41.5289 58.1343 39.4254C58.1343 37.322 56.4292 35.6169 54.3257 35.6169C52.2223 35.6169 50.5172 37.322 50.5172 39.4254C50.5172 41.5289 52.2223 43.234 54.3257 43.234Z" fill="white"/>
<path d="M44.1695 55.9294C46.2729 55.9294 47.9781 54.2242 47.9781 52.1208C47.9781 50.0173 46.2729 48.3122 44.1695 48.3122C42.0661 48.3122 40.3609 50.0173 40.3609 52.1208C40.3609 54.2242 42.0661 55.9294 44.1695 55.9294Z" fill="white"/>
<path d="M34.3064 21.8986C35.1455 23.3522 35.7562 24.8744 36.1472 26.427C31.342 28.7681 27.07 30.3994 23.9838 31.104C24.0447 30.1391 23.8315 29.1464 23.3122 28.2463C22.812 27.3792 22.0935 26.7152 21.267 26.2848C23.4277 23.9667 26.9685 21.0937 31.3826 18.1154C32.4985 19.2136 33.4862 20.478 34.3064 21.8986Z" fill="white"/>
<path d="M28.9352 58.4684C31.0387 58.4684 32.7439 56.7633 32.7439 54.6599C32.7439 52.5564 31.0387 50.8513 28.9352 50.8513C26.8318 50.8513 25.1266 52.5564 25.1266 54.6599C25.1266 56.7633 26.8318 58.4684 28.9352 58.4684Z" fill="white"/>
<path d="M22.5873 9.12045C24.6909 9.12045 26.3959 10.8267 26.3959 12.929C26.3959 15.0327 24.6909 16.7376 22.5873 16.7376C20.4837 16.7376 18.7787 15.0327 18.7787 12.929C18.7787 10.8267 20.4837 9.12045 22.5873 9.12045Z" fill="white"/>
<path d="M60.5919 23.9788C58.2978 21.4123 55.175 19.7474 51.4355 19.0681C55.1064 16.591 58.2726 14.1257 60.53 11.9746C63.9716 8.69527 65.1256 6.39082 64.162 4.72278C63.0898 2.86495 59.9946 2.87777 54.4205 4.76354C49.711 6.3568 43.844 9.12399 37.9005 12.5555C36.8782 13.1457 35.8655 13.7499 34.8743 14.3589C34.1012 12.2689 34.5708 9.95198 36.239 7.8372C37.4586 6.29091 37.7309 4.32694 36.9498 2.71146C36.1309 1.01829 34.3335 0.00457031 32.1394 0H32.0797C24.3348 0 16.7594 3.05589 10.7491 8.60476C4.73122 14.1605 1.04704 21.5151 0.375329 29.3137C-0.539241 39.9395 3.46473 50.0059 11.3605 56.9319C17.2916 62.1347 24.886 65 32.7448 65C37.6413 65 42.2356 64.0999 46.4002 62.3246C50.2066 60.702 53.5828 58.3861 56.4348 55.4413C59.079 52.7112 61.1564 49.5716 62.6095 46.1099C63.9931 42.8138 64.7344 39.3279 64.7529 36.0292C64.7799 31.2215 63.3412 27.0546 60.5919 23.9788ZM39.17 14.7545C44.6653 11.5817 50.1375 8.96835 54.5787 7.39578C59.4677 5.66478 61.4694 5.77776 61.936 6.0012C61.8957 6.29662 61.5288 7.61097 58.3205 10.5654C55.6416 13.0325 51.7295 15.9338 47.3051 18.7347C45.9064 19.6205 44.4508 20.5008 42.9788 21.3508C40.9494 22.5221 38.9216 23.6173 36.9314 24.6201C36.5342 23.4612 36.0253 22.3365 35.4059 21.2635C34.8055 20.2236 34.1092 19.2474 33.3308 18.3441C33.8817 17.983 34.4422 17.622 35.0103 17.2641C36.3538 16.4167 37.7534 15.5723 39.17 14.7545ZM25.1302 29.4943C24.9934 28.8375 24.753 28.2028 24.4119 27.6114C24.0885 27.0509 23.6829 26.5498 23.2141 26.1177C25.1806 24.2199 27.9484 22.021 31.2076 19.7716C31.9642 20.6172 32.635 21.5422 33.2069 22.5328C33.7984 23.5573 34.2745 24.6349 34.6311 25.7463C31.0464 27.4464 27.7571 28.7424 25.1302 29.4943ZM20.6806 27.4103C21.3203 27.7434 21.85 28.2516 22.2125 28.8802C22.5897 29.534 22.764 30.2751 22.7168 31.0235C22.6355 32.3003 21.9261 33.4439 20.8186 34.0832C19.618 34.7768 15.4935 34.8702 12.1071 34.7153C13.6654 31.706 15.8083 28.1811 17.0101 27.4869C18.145 26.8318 19.5167 26.8031 20.6806 27.4103ZM32.7448 62.4609C25.5024 62.4609 18.5025 59.8194 13.0347 55.0233C5.75268 48.6355 2.06051 39.344 2.90487 29.5317C4.18697 14.6479 17.2747 2.53906 32.0796 2.53906H32.1366C33.3512 2.5416 34.2723 3.00727 34.6637 3.81685C35.0236 4.56105 34.8672 5.47612 34.2452 6.26476C31.8965 9.24257 31.3529 12.6986 32.6932 15.7305C32.0066 16.1727 31.332 16.6169 30.6802 17.0573C30.6771 17.0593 30.6741 17.0614 30.6712 17.0634C26.6342 19.7874 23.2252 22.497 20.9571 24.7772C19.2369 24.1893 17.3468 24.3607 15.7403 25.2879C13.1028 26.8115 9.63948 33.9113 8.97209 35.3191C8.79334 35.6959 8.81124 36.1366 9.01969 36.4978C9.22828 36.8589 9.60089 37.0947 10.0165 37.1285C10.7182 37.1853 12.7107 37.329 14.9285 37.329C17.6196 37.329 20.6421 37.1173 22.0881 36.2821C23.6545 35.3779 24.7402 33.8672 25.1162 32.1304C28.2295 31.3132 32.2972 29.7145 36.7027 27.5681C39.1711 26.3668 41.7096 25.0148 44.2482 23.5498C45.5347 22.8069 46.8067 22.0408 48.0428 21.2683C58.5409 21.555 62.2531 29.0419 62.2137 36.0148C62.1421 48.7334 50.8549 62.4609 32.7448 62.4609Z" fill="#03A63C"/>
<path d="M44.1873 36.8425C44.29 36.1489 43.811 35.5034 43.1174 35.4007C42.4244 35.2977 41.7783 35.777 41.6756 36.4705C41.3287 38.8134 39.3482 40.7566 36.378 41.6686C33.2033 42.6435 28.7966 42.3167 26.1084 39.3893C25.6341 38.8728 24.831 38.8388 24.3147 39.3129C23.7982 39.7872 23.7641 40.5903 24.2382 41.1066C25.7944 42.8013 27.9081 43.9563 30.3506 44.4467C31.2132 44.6199 32.1079 44.7058 33.0085 44.7058C34.3997 44.7058 35.8046 44.5008 37.1233 44.0958C41.0527 42.8894 43.6934 40.1779 44.1873 36.8425Z" fill="#03A63C"/>
<path d="M22.5873 18.0072C25.3874 18.0072 27.6654 15.7291 27.6654 12.929C27.6654 10.129 25.3874 7.85092 22.5873 7.85092C19.7872 7.85092 17.5092 10.129 17.5092 12.929C17.5092 15.7291 19.7872 18.0072 22.5873 18.0072ZM22.5873 10.39C23.9873 10.39 25.1263 11.529 25.1263 12.929C25.1263 14.3291 23.9873 15.4681 22.5873 15.4681C21.1872 15.4681 20.0482 14.3291 20.0482 12.929C20.0482 11.529 21.1874 10.39 22.5873 10.39Z" fill="#03A63C"/>
<path d="M16.2396 41.9645C13.4395 41.9645 11.1615 44.2426 11.1615 47.0426C11.1615 49.8427 13.4395 52.1208 16.2396 52.1208C19.0397 52.1208 21.3177 49.8427 21.3177 47.0426C21.3177 44.2426 19.0398 41.9645 16.2396 41.9645ZM16.2396 49.5817C14.8396 49.5817 13.7006 48.4427 13.7006 47.0426C13.7006 45.6426 14.8396 44.5036 16.2396 44.5036C17.6397 44.5036 18.7787 45.6426 18.7787 47.0426C18.7787 48.4427 17.6397 49.5817 16.2396 49.5817Z" fill="#03A63C"/>
<path d="M28.9349 49.5817C26.1349 49.5817 23.8568 51.8597 23.8568 54.6598C23.8568 57.4599 26.1349 59.7379 28.9349 59.7379C31.735 59.7379 34.0131 57.4599 34.0131 54.6598C34.0131 51.8597 31.7351 49.5817 28.9349 49.5817ZM28.9349 57.1989C27.5349 57.1989 26.3959 56.0599 26.3959 54.6598C26.3959 53.2598 27.5349 52.1208 28.9349 52.1208C30.335 52.1208 31.474 53.2598 31.474 54.6598C31.474 56.0599 30.335 57.1989 28.9349 57.1989Z" fill="#03A63C"/>
<path d="M44.1693 47.0426C41.3692 47.0426 39.0912 49.3207 39.0912 52.1208C39.0912 54.9208 41.3692 57.1989 44.1693 57.1989C46.9694 57.1989 49.2474 54.9208 49.2474 52.1208C49.2474 49.3207 46.9695 47.0426 44.1693 47.0426ZM44.1693 54.6598C42.7693 54.6598 41.6302 53.5208 41.6302 52.1208C41.6302 50.7207 42.7693 49.5817 44.1693 49.5817C45.5694 49.5817 46.7084 50.7207 46.7084 52.1208C46.7084 53.5208 45.5694 54.6598 44.1693 54.6598Z" fill="#03A63C"/>
<path d="M54.3256 34.3473C51.5255 34.3473 49.2474 36.6254 49.2474 39.4254C49.2474 42.2255 51.5255 44.5036 54.3256 44.5036C57.1256 44.5036 59.4037 42.2255 59.4037 39.4254C59.4037 36.6254 57.1258 34.3473 54.3256 34.3473ZM54.3256 41.9645C52.9255 41.9645 51.7865 40.8255 51.7865 39.4254C51.7865 38.0254 52.9255 36.8864 54.3256 36.8864C55.7256 36.8864 56.8646 38.0254 56.8646 39.4254C56.8646 40.8255 55.7256 41.9645 54.3256 41.9645Z" fill="#03A63C"/>
<path d="M42.9 31.2305C43.6011 31.2305 44.1695 30.6621 44.1695 29.9609C44.1695 29.2598 43.6011 28.6914 42.9 28.6914C42.1988 28.6914 41.6304 29.2598 41.6304 29.9609C41.6304 30.6621 42.1988 31.2305 42.9 31.2305Z" fill="#03A63C"/>
</svg>
