<svg width="33" height="24" viewBox="0 0 33 24" fill="none" xmlns="http://www.w3.org/2000/svg">
<g clip-path="url(#clip0)">
<path d="M16.8021 17.0001C16.2464 17.0001 15.7954 16.6641 15.7954 16.2501V0.75C15.7954 0.335999 16.2464 0 16.8021 0C17.3578 0 17.8087 0.335999 17.8087 0.75V16.2501C17.8087 16.6641 17.3578 17.0001 16.8021 17.0001Z" fill="white"/>
<path d="M16.8021 17C16.5443 17 16.2867 16.9269 16.0906 16.7799L10.7217 12.7799C10.3284 12.487 10.3284 12.012 10.7217 11.7188C11.1149 11.4259 11.7524 11.4259 12.1459 11.7188L16.8033 15.1889L21.4609 11.7188C21.8542 11.4259 22.492 11.4259 22.8852 11.7188C23.2784 12.012 23.2784 12.487 22.8852 12.7799L17.516 16.7799C17.3175 16.9269 17.0599 17 16.8021 17Z" fill="white"/>
<path d="M29.2178 24.0001H4.38639C2.35016 24.0001 0.695129 22.7671 0.695129 21.25V16.75C0.695129 16.336 1.14612 16 1.70181 16C2.25751 16 2.7085 16.336 2.7085 16.75V21.25C2.7085 21.9391 3.46155 22.5001 4.38639 22.5001H29.2178C30.1426 22.5001 30.8957 21.9391 30.8957 21.25V16.75C30.8957 16.336 31.3467 16 31.9023 16C32.458 16 32.909 16.336 32.909 16.75V21.25C32.909 22.7671 31.254 24.0001 29.2178 24.0001Z" fill="white"/>
</g>
<defs>
<clipPath id="clip0">
<rect width="32.2139" height="24" fill="white" transform="translate(0.695129)"/>
</clipPath>
</defs>
</svg>
