<svg width="45" height="45" viewBox="0 0 45 45" fill="none" xmlns="http://www.w3.org/2000/svg">
<path d="M37.2621 37.2639C33.2259 41.3001 27.7517 43.5678 22.0437 43.5683H22.0212C22.0212 43.5683 22.0212 43.5683 22.0211 43.5683C16.3134 43.5674 10.8396 41.2994 6.80379 37.2633C2.76794 33.2271 0.500461 27.7532 0.5 22.0454C0.5 22.0454 0.5 22.0454 0.5 22.0454V22.0333C0.5 16.3223 2.76867 10.8452 6.80694 6.80695C10.8452 2.76868 16.3223 0.5 22.0333 0.5C27.7442 0.5 33.2213 2.76868 37.2596 6.80695C41.2979 10.8452 43.5665 16.3223 43.5665 22.0333V22.0454C43.5661 27.7535 41.2984 33.2276 37.2621 37.2639Z" stroke="white"/>
<path d="M22.0315 12.7717C25.0499 12.7717 25.4059 12.7821 26.599 12.8377C27.3154 12.8465 28.0249 12.9781 28.6969 13.2267C29.1842 13.414 29.6268 13.7015 29.996 14.0707C30.3652 14.4398 30.6527 14.8824 30.8399 15.3698C31.0885 16.0417 31.2201 16.7513 31.229 17.4677C31.2845 18.6608 31.295 19.0168 31.295 22.0334C31.295 25.05 31.2845 25.4078 31.229 26.6009C31.2201 27.3173 31.0885 28.0268 30.8399 28.6988C30.6527 29.1861 30.3652 29.6287 29.996 29.9979C29.6268 30.3671 29.1842 30.6546 28.6969 30.8419C28.0249 31.0904 27.3154 31.222 26.599 31.2309C25.4076 31.2864 25.0499 31.2969 22.0315 31.2969C19.0131 31.2969 18.6571 31.2864 17.4658 31.2309C16.7494 31.222 16.0398 31.0904 15.3679 30.8419C14.8805 30.6546 14.4379 30.3671 14.0688 29.9979C13.6996 29.6287 13.4121 29.1861 13.2248 28.6988C12.9762 28.0268 12.8446 27.3173 12.8358 26.6009C12.7802 25.4078 12.7698 25.0518 12.7698 22.0334C12.7698 19.0151 12.7802 18.6608 12.8358 17.4677C12.8446 16.7513 12.9762 16.0417 13.2248 15.3698C13.4121 14.8824 13.6996 14.4398 14.0688 14.0707C14.4379 13.7015 14.8805 13.414 15.3679 13.2267C16.0398 12.9781 16.7494 12.8465 17.4658 12.8377C18.6589 12.7821 19.0149 12.7717 22.0315 12.7717ZM22.0315 10.7346C18.9645 10.7346 18.579 10.7485 17.3737 10.804C16.4367 10.821 15.5094 10.9971 14.6315 11.325C13.8819 11.6147 13.2012 12.0579 12.6329 12.6261C12.0647 13.1944 11.6215 13.8751 11.3318 14.6247C11.0039 15.5026 10.8277 16.4299 10.8108 17.3669C10.7552 18.5722 10.7413 18.9577 10.7413 22.0247C10.7413 25.0917 10.7552 25.479 10.8108 26.6842C10.8277 27.6212 11.0039 28.5485 11.3318 29.4265C11.6215 30.176 12.0647 30.8568 12.6329 31.425C13.2012 31.9933 13.8819 32.4365 14.6315 32.7262C15.5094 33.054 16.4367 33.2302 17.3737 33.2472C18.579 33.3027 18.9645 33.3166 22.0315 33.3166C25.0985 33.3166 25.4858 33.3027 26.691 33.2472C27.628 33.2302 28.5553 33.054 29.4332 32.7262C30.1828 32.4365 30.8636 31.9933 31.4318 31.425C32.0001 30.8568 32.4432 30.176 32.7329 29.4265C33.0608 28.5485 33.237 27.6212 33.2539 26.6842C33.3095 25.479 33.3234 25.0934 33.3234 22.0247C33.3234 18.956 33.3095 18.5722 33.2539 17.3669C33.237 16.4299 33.0608 15.5026 32.7329 14.6247C32.4432 13.8751 32.0001 13.1944 31.4318 12.6261C30.8636 12.0579 30.1828 11.6147 29.4332 11.325C28.5553 10.9971 27.628 10.821 26.691 10.804C25.4858 10.7485 25.1002 10.7346 22.0315 10.7346Z" fill="white"/>
<path d="M22.0314 16.2317C20.8838 16.2317 19.7619 16.572 18.8077 17.2097C17.8535 17.8473 17.1098 18.7536 16.6707 19.8139C16.2316 20.8742 16.1168 22.041 16.3408 23.1665C16.5648 24.2921 17.1176 25.326 17.9293 26.1374C18.7409 26.9488 19.7749 27.5012 20.9005 27.7249C22.0262 27.9486 23.1929 27.8334 24.2531 27.394C25.3133 26.9546 26.2193 26.2106 26.8567 25.2562C27.494 24.3018 27.834 23.1799 27.8337 22.0322C27.8337 21.2703 27.6836 20.5159 27.392 19.812C27.1004 19.1082 26.673 18.4687 26.1341 17.93C25.5953 17.3914 24.9557 16.9641 24.2517 16.6727C23.5478 16.3813 22.7933 16.2315 22.0314 16.2317ZM22.0314 25.7991C21.2864 25.7991 20.5582 25.5781 19.9387 25.1642C19.3192 24.7503 18.8364 24.162 18.5513 23.4737C18.2662 22.7854 18.1916 22.028 18.337 21.2973C18.4823 20.5666 18.8411 19.8954 19.3679 19.3686C19.8947 18.8418 20.5659 18.4831 21.2966 18.3377C22.0273 18.1924 22.7847 18.267 23.473 18.5521C24.1613 18.8372 24.7496 19.32 25.1635 19.9394C25.5774 20.5589 25.7983 21.2872 25.7983 22.0322C25.7983 23.0312 25.4014 23.9894 24.695 24.6958C23.9886 25.4022 23.0305 25.7991 22.0314 25.7991Z" fill="white"/>
<path d="M28.0627 17.3595C28.8118 17.3595 29.4191 16.7523 29.4191 16.0032C29.4191 15.2541 28.8118 14.6469 28.0627 14.6469C27.3136 14.6469 26.7064 15.2541 26.7064 16.0032C26.7064 16.7523 27.3136 17.3595 28.0627 17.3595Z" fill="white"/>
</svg>
