<svg width="45" height="45" viewBox="0 0 45 45" fill="none" xmlns="http://www.w3.org/2000/svg">
<path d="M22.9666 0.5H22.9667C28.6776 0.5 34.1547 2.76868 38.193 6.80695C42.2312 10.8452 44.4999 16.3223 44.4999 22.0333V22.0454C44.4995 27.7535 42.2317 33.2276 38.1955 37.2639C34.1593 41.3001 28.6851 43.5678 22.9771 43.5683H22.9545C17.2464 43.5678 11.7723 41.3001 7.73605 37.2639C3.69983 33.2277 1.4321 27.7535 1.43164 22.0454C1.43164 22.0454 1.43164 22.0454 1.43164 22.0454V22.0333C1.43164 19.2053 1.98867 16.4051 3.07093 13.7925C4.15318 11.1798 5.73946 8.80592 7.73919 6.80635C9.73892 4.80678 12.1129 3.22068 14.7257 2.13864C17.3384 1.05659 20.1387 0.499777 22.9666 0.5Z" stroke="white"/>
<path fill-rule="evenodd" clip-rule="evenodd" d="M22.1453 30.7096H23.816C23.816 30.7096 24.3196 30.6541 24.5784 30.3762C24.8372 30.0983 24.8076 29.6433 24.8076 29.6433C24.8076 29.6433 24.7746 27.4013 25.8149 27.0713C26.8552 26.7413 28.1577 29.2369 29.5522 30.1973C30.6081 30.9215 31.4105 30.7635 31.4105 30.7635L35.1426 30.7114C35.1426 30.7114 37.0947 30.5898 36.169 29.0563C36.0926 28.9295 35.6289 27.9205 33.3903 25.8452C31.0493 23.6726 31.3636 24.0252 34.1822 20.267C35.8998 17.9798 36.5858 16.5835 36.3705 15.9843C36.1673 15.4147 34.9047 15.5641 34.9047 15.5641L30.7019 15.5918C30.5158 15.5691 30.3272 15.6024 30.1601 15.6874C30.0005 15.8038 29.8727 15.9585 29.7884 16.1372C29.3549 17.2659 28.8377 18.3608 28.241 19.4125C26.3706 22.5889 25.6221 22.7574 25.3165 22.5594C24.6044 22.0992 24.7833 20.7133 24.7833 19.7269C24.7833 16.6477 25.2505 15.3643 23.8733 15.0378C23.4165 14.9267 23.0796 14.8537 21.9126 14.8416C20.4121 14.8277 19.1443 14.8416 18.4253 15.1993C17.9477 15.4321 17.5778 15.9548 17.8036 15.9843C18.0815 16.0208 18.7101 16.158 19.0436 16.6078C19.4743 17.1931 19.4586 18.5181 19.4586 18.5181C19.4586 18.5181 19.707 22.1426 18.8803 22.5924C18.3142 22.9015 17.5379 22.2711 15.8689 19.3882C15.3028 18.3854 14.8022 17.347 14.3702 16.2796C14.2927 16.0987 14.1737 15.9387 14.0228 15.8124C13.8278 15.683 13.6087 15.5944 13.3785 15.5519L9.38417 15.5762C9.38417 15.5762 8.78501 15.5936 8.56445 15.8541C8.36994 16.0868 8.54882 16.5661 8.54882 16.5661C8.54882 16.5661 11.6748 23.8793 15.2159 27.5663C18.4618 30.9458 22.147 30.7235 22.147 30.7235L22.1453 30.7096Z" fill="white"/>
</svg>
